<svg width="150" height="150" viewBox="0 0 150 150" fill="none" xmlns="http://www.w3.org/2000/svg">
<rect x="0.5" y="0.5" width="149" height="149" fill="#0D00FF" stroke="#0D00FF"/>
<rect x="12" y="12" width="127" height="127" stroke="white" stroke-width="8"/>
<path d="M40.5625 120C40.2292 120 40.0625 119.792 40.0625 119.375V116.75C40.0625 116.708 40.0833 116.625 40.125 116.5C40.1667 116.333 40.3125 116.25 40.5625 116.25C41.9792 116.25 43.2917 116.042 44.5 115.625C45.75 115.208 46.8333 114.646 47.75 113.938C48.6667 113.229 49.3958 112.375 49.9375 111.375C50.4792 110.375 50.75 109.292 50.75 108.125V44.625C50.75 42.5417 50.5417 40.9167 50.125 39.75C49.7083 38.5417 49.0833 37.6458 48.25 37.0625C47.4583 36.4375 46.4375 36.0625 45.1875 35.9375C43.9792 35.7708 42.5625 35.6875 40.9375 35.6875H38.125C37.6667 35.6875 37.3333 35.4375 37.125 34.9375C36.9167 34.3958 36.8125 33.9375 36.8125 33.5625C36.8125 33.3542 36.8542 33.0417 36.9375 32.625C37.0208 32.2083 37.25 31.9583 37.625 31.875C37.6667 31.875 37.7917 31.875 38 31.875C38.25 31.875 38.6667 31.875 39.25 31.875C39.8333 31.8333 40.6042 31.8125 41.5625 31.8125C42.5625 31.7708 43.8542 31.7292 45.4375 31.6875C47.7292 31.6458 50.1667 31.5833 52.75 31.5C55.375 31.4167 58.0208 31.3333 60.6875 31.25C63.3542 31.1667 65.9792 31.1042 68.5625 31.0625C71.1875 30.9792 73.6458 30.9375 75.9375 30.9375H84.75C88.0833 30.9375 91.3333 31.5 94.5 32.625C97.6667 33.75 100.479 35.4167 102.938 37.625C105.396 39.7917 107.375 42.5 108.875 45.75C110.375 49 111.125 52.75 111.125 57C111.125 59.6667 110.729 62.2292 109.938 64.6875C109.146 67.1042 108.062 69.3333 106.688 71.375C105.354 73.4167 103.792 75.2708 102 76.9375C100.25 78.5625 98.3958 79.9375 96.4375 81.0625C94.5208 82.1875 92.5625 83.0417 90.5625 83.625C88.8125 84.0833 87.1667 84.3125 85.625 84.3125C85.375 84.3125 85.1458 84.3125 84.9375 84.3125L70 83.5625C69.9583 83.5625 69.7917 83.5625 69.5 83.5625C69.2083 83.5625 69 83.6042 68.875 83.6875C68.75 83.7708 68.6667 83.8542 68.625 83.9375C68.5833 84.0208 68.5625 84.1875 68.5625 84.4375V107.938C68.5625 109.562 69 110.917 69.875 112C70.7917 113.042 71.9583 113.875 73.375 114.5C74.8333 115.125 76.4583 115.583 78.25 115.875C80.0417 116.125 81.8125 116.25 83.5625 116.25C83.8125 116.25 83.9583 116.312 84 116.438C84.0417 116.562 84.0625 116.667 84.0625 116.75V119.5C84.0625 119.583 84.0208 119.688 83.9375 119.812C83.8958 119.938 83.7708 120 83.5625 120H40.5625ZM68.6875 76.5C68.7292 76.8333 68.8125 77.1458 68.9375 77.4375C69.1042 77.6875 69.4167 77.8333 69.875 77.875C70.0417 77.875 70.3333 77.8958 70.75 77.9375C71.2083 77.9792 71.7292 78.0208 72.3125 78.0625C72.8958 78.1042 73.5208 78.1458 74.1875 78.1875C74.8958 78.2292 75.5833 78.25 76.25 78.25C79.0417 78.25 81.4792 77.6875 83.5625 76.5625C85.6875 75.4375 87.4375 73.875 88.8125 71.875C90.2292 69.8333 91.2708 67.4375 91.9375 64.6875C92.6458 61.8958 93 58.8333 93 55.5C93 48.625 91.625 43.5833 88.875 40.375C86.125 37.1667 82.0833 35.5625 76.75 35.5625C76.1667 35.5625 75.625 35.5833 75.125 35.625C74.625 35.625 74.125 35.6458 73.625 35.6875C73.125 35.6875 72.5833 35.7083 72 35.75C71.4583 35.75 70.8333 35.7708 70.125 35.8125C69.875 35.8125 69.5417 35.875 69.125 36C68.75 36.0833 68.5625 36.3542 68.5625 36.8125V74.625L68.6875 76.5Z" fill="white"/>
</svg>
